<svg xmlns="http://www.w3.org/2000/svg" xmlns:xlink="http://www.w3.org/1999/xlink" width="500" zoomAndPan="magnify" viewBox="0 0 375 374.999991" height="500" preserveAspectRatio="xMidYMid meet" version="1.0"><defs><clipPath id="33a6a58e21"><path d="M 84.375 98.0625 L 290.476562 98.0625 L 290.476562 276.957031 L 84.375 276.957031 Z M 84.375 98.0625 " clip-rule="nonzero"/></clipPath><clipPath id="61c496eb20"><path d="M 94 103.789062 L 281 103.789062 L 281 271.117188 L 94 271.117188 Z M 94 103.789062 " clip-rule="nonzero"/></clipPath><clipPath id="22a0dfb83a"><path d="M 115 124 L 208 124 L 208 194 L 115 194 Z M 115 124 " clip-rule="nonzero"/></clipPath><clipPath id="c929b5c664"><path d="M 104.046875 161.691406 L 191.882812 109.976562 L 218.902344 155.867188 L 131.066406 207.582031 Z M 104.046875 161.691406 " clip-rule="nonzero"/></clipPath><clipPath id="dbf025c673"><path d="M 147.960938 135.835938 C 123.707031 150.113281 110.09375 171.964844 117.554688 184.636719 C 125.015625 197.308594 150.726562 196.003906 174.980469 181.726562 C 199.234375 167.445312 212.847656 145.597656 205.386719 132.925781 C 197.925781 120.253906 172.214844 121.554688 147.960938 135.835938 Z M 147.960938 135.835938 " clip-rule="nonzero"/></clipPath><clipPath id="ee95995dc0"><path d="M 185.996094 142.96875 L 194.691406 142.96875 L 194.691406 151.660156 L 185.996094 151.660156 Z M 185.996094 142.96875 " clip-rule="nonzero"/></clipPath><clipPath id="17bc345b4b"><path d="M 190.34375 142.96875 C 187.941406 142.96875 185.996094 144.914062 185.996094 147.316406 C 185.996094 149.714844 187.941406 151.660156 190.34375 151.660156 C 192.742188 151.660156 194.691406 149.714844 194.691406 147.316406 C 194.691406 144.914062 192.742188 142.96875 190.34375 142.96875 Z M 190.34375 142.96875 " clip-rule="nonzero"/></clipPath><clipPath id="9d48b3a3d1"><path d="M 136 138 L 179 138 L 179 187 L 136 187 Z M 136 138 " clip-rule="nonzero"/></clipPath><clipPath id="b60454ada6"><path d="M 127.339844 170.730469 L 154.109375 128.839844 L 178.707031 144.5625 L 151.933594 186.453125 Z M 127.339844 170.730469 " clip-rule="nonzero"/></clipPath><clipPath id="c65b973738"><path d="M 137.46875 157.546875 C 138.105469 154.941406 139.1875 152.1875 140.71875 149.796875 C 142.25 147.402344 144.132812 145.359375 146.21875 143.703125 C 146.269531 143.671875 146.300781 143.625 146.351562 143.597656 C 154.363281 137.488281 165.824219 136.542969 174.308594 141.804688 L 178.683594 144.601562 L 151.933594 186.453125 L 147.5625 183.65625 C 139.175781 178.140625 135.164062 167.429688 137.46875 157.546875 Z M 137.46875 157.546875 " clip-rule="nonzero"/></clipPath><clipPath id="63aaa38816"><path d="M 140 142 L 181 142 L 181 193 L 140 193 Z M 140 142 " clip-rule="nonzero"/></clipPath><clipPath id="f5e1261d04"><path d="M 130.140625 179.742188 L 160.179688 132.738281 L 180.300781 145.597656 L 150.261719 192.601562 Z M 130.140625 179.742188 " clip-rule="nonzero"/></clipPath><clipPath id="7c24c8c229"><path d="M 141.363281 164.84375 C 142.167969 161.976562 143.441406 158.925781 145.160156 156.238281 C 146.878906 153.550781 148.941406 151.226562 151.195312 149.3125 C 151.25 149.273438 151.28125 149.222656 151.335938 149.1875 C 159.976562 142.105469 171.894531 140.4375 180.285156 145.621094 L 150.261719 192.601562 C 141.988281 187.132812 138.425781 175.71875 141.363281 164.84375 Z M 141.363281 164.84375 " clip-rule="nonzero"/></clipPath></defs><path fill="#d18c1f" d="M 238.441406 99.230469 L 136.558594 99.230469 L 85.613281 187.472656 L 136.558594 275.71875 L 238.441406 275.71875 L 289.382812 187.472656 Z M 238.441406 99.230469 " fill-opacity="1" fill-rule="nonzero"/><g clip-path="url(#33a6a58e21)"><path fill="#d18c1f" d="M 238.441406 276.910156 L 136.558594 276.910156 C 136.128906 276.910156 135.746094 276.671875 135.507812 276.335938 L 84.566406 188.09375 C 84.375 187.710938 84.375 187.285156 84.566406 186.902344 L 135.507812 98.660156 C 135.699219 98.277344 136.128906 98.085938 136.558594 98.085938 L 238.441406 98.085938 C 238.871094 98.085938 239.253906 98.324219 239.492188 98.660156 L 290.433594 186.902344 C 290.625 187.285156 290.625 187.710938 290.433594 188.09375 L 239.492188 276.335938 C 239.253906 276.671875 238.871094 276.910156 238.441406 276.910156 Z M 137.273438 274.523438 L 237.773438 274.523438 L 288.046875 187.472656 L 237.773438 100.425781 L 137.273438 100.425781 L 87 187.472656 Z M 137.273438 274.523438 " fill-opacity="1" fill-rule="nonzero"/></g><g clip-path="url(#61c496eb20)"><path fill="#ffc62a" d="M 133.363281 261.160156 L 115 229.351562 L 96.632812 197.539062 C 93.429688 191.996094 93.429688 182.992188 96.632812 177.449219 L 115 145.640625 L 133.363281 113.828125 C 136.566406 108.285156 144.363281 103.78125 150.761719 103.78125 L 224.226562 103.78125 C 230.628906 103.78125 238.425781 108.285156 241.625 113.828125 L 259.992188 145.640625 L 278.359375 177.449219 C 281.558594 182.992188 281.558594 191.996094 278.359375 197.539062 L 259.992188 229.351562 L 241.625 261.160156 C 238.425781 266.707031 230.628906 271.207031 224.226562 271.207031 L 150.761719 271.207031 C 144.363281 271.207031 136.566406 266.707031 133.363281 261.160156 Z M 133.363281 261.160156 " fill-opacity="1" fill-rule="nonzero"/></g><g clip-path="url(#22a0dfb83a)"><g clip-path="url(#c929b5c664)"><g clip-path="url(#dbf025c673)"><path fill="#ffe279" d="M 104.046875 161.691406 L 191.882812 109.976562 L 218.902344 155.867188 L 131.066406 207.582031 Z M 104.046875 161.691406 " fill-opacity="1" fill-rule="nonzero"/></g></g></g><g clip-path="url(#ee95995dc0)"><g clip-path="url(#17bc345b4b)"><path fill="#ffffff" d="M 185.996094 142.96875 L 194.691406 142.96875 L 194.691406 151.660156 L 185.996094 151.660156 Z M 185.996094 142.96875 " fill-opacity="1" fill-rule="nonzero"/></g></g><g clip-path="url(#9d48b3a3d1)"><g clip-path="url(#b60454ada6)"><g clip-path="url(#c65b973738)"><path fill="#ffffff" d="M 127.339844 170.730469 L 154.109375 128.839844 L 178.707031 144.5625 L 151.933594 186.453125 Z M 127.339844 170.730469 " fill-opacity="1" fill-rule="nonzero"/></g></g></g><g clip-path="url(#63aaa38816)"><g clip-path="url(#f5e1261d04)"><g clip-path="url(#7c24c8c229)"><path fill="#ffe279" d="M 130.140625 179.742188 L 160.179688 132.738281 L 180.300781 145.597656 L 150.261719 192.601562 Z M 130.140625 179.742188 " fill-opacity="1" fill-rule="nonzero"/></g></g></g><path fill="#ffc62a" d="M 227.453125 254.957031 C 234.371094 247.078125 238.242188 240.96875 227.699219 240.230469 C 217.152344 239.492188 208.554688 245.625 197.507812 244.402344 C 193.285156 243.933594 189.183594 242.949219 185.207031 241.449219 C 178.28125 238.917969 170.925781 237.785156 163.582031 238.335938 C 156.847656 238.839844 143.636719 243.09375 144.988281 247.101562 C 146.816406 252.53125 151.9375 252.703125 146.214844 266.246094 C 136.746094 288.660156 165.097656 290.246094 167.8125 278.027344 C 169.773438 269.191406 169.285156 264.039062 175.664062 267.238281 C 184.117188 271.457031 174.929688 282.945312 172.476562 288.34375 C 170.023438 293.742188 168.386719 310.886719 184.453125 313.125 C 205.609375 316.078125 205.117188 292.753906 199.964844 280.480469 C 195.777344 270.511719 199.457031 265.125 205.34375 265.523438 C 207.984375 265.703125 210.390625 267.105469 211.996094 269.210938 C 213.605469 271.316406 213.375 276.808594 212.234375 280.238281 C 210.269531 286.128906 211.171875 297.503906 222.296875 294.964844 C 233.96875 292.304688 226.957031 278.273438 224.011719 266.246094 C 222.941406 261.851562 225.132812 257.597656 227.453125 254.957031 Z M 227.453125 254.957031 " fill-opacity="1" fill-rule="nonzero"/><path fill="#ffe279" d="M 173.316406 266.359375 L 173.296875 266.359375 C 166.511719 264.023438 164.210938 268.699219 160.941406 277.214844 C 157.667969 285.730469 146.253906 281.070312 146.253906 281.070312 C 151.5625 288.359375 165.917969 286.554688 167.8125 278.035156 C 169.492188 270.464844 169.378906 265.605469 173.316406 266.359375 Z M 173.316406 266.359375 " fill-opacity="1" fill-rule="nonzero"/><path fill="#ffe279" d="M 205.34375 265.523438 C 205.34375 265.523438 193.992188 261.175781 193.832031 273.9375 C 193.683594 285.476562 203.429688 314 176.757812 310.171875 C 178.699219 311.609375 181.21875 312.675781 184.457031 313.125 C 205.609375 316.078125 205.117188 292.753906 199.964844 280.480469 C 195.777344 270.511719 199.457031 265.125 205.34375 265.523438 Z M 205.34375 265.523438 " fill-opacity="1" fill-rule="nonzero"/><path fill="#ffe279" d="M 226.355469 256.367188 C 226.355469 256.367188 220.007812 262.15625 222.132812 271.652344 C 224.078125 280.304688 224.921875 296.996094 214.253906 293.515625 C 215.960938 295.085938 218.550781 295.816406 222.308594 294.964844 C 233.976562 292.304688 226.96875 278.273438 224.023438 266.246094 C 223.113281 262.558594 224.511719 258.976562 226.355469 256.367188 Z M 226.355469 256.367188 " fill-opacity="1" fill-rule="nonzero"/><path fill="#ffffff" d="M 174.847656 291.773438 C 174.847656 291.773438 171.972656 307.644531 183.636719 307.480469 C 195.300781 307.316406 177.464844 306.007812 174.847656 291.773438 Z M 174.847656 291.773438 " fill-opacity="1" fill-rule="nonzero"/><path fill="#ffffff" d="M 148.628906 268.207031 C 148.628906 268.207031 144.417969 281.320312 152.878906 279.539062 C 160.863281 277.863281 148.242188 281.855469 148.628906 268.207031 Z M 148.628906 268.207031 " fill-opacity="1" fill-rule="nonzero"/><path fill="#ffffff" d="M 214.441406 282.226562 C 214.441406 282.226562 210.953125 293.109375 217.96875 291.632812 C 224.59375 290.242188 214.125 293.550781 214.441406 282.226562 Z M 214.441406 282.226562 " fill-opacity="1" fill-rule="nonzero"/></svg>